:FULLY-SPECIFIED
:FORCE-ALL-JOINTS-BE-3DOF
:DEGREES
1121
root 0.918734 14.6701 -28.2686 359.677 9.45611 365.873
lfemur -25.0467 5.76365 -27.6347
ltibia 69.1537 0 0
lfoot -29.4793 25.0479 0
ltoes -22.753 0 0
rfemur -66.6426 -9.52313 17.5732
rtibia 80.4797 0 0
rfoot 0.734162 -1.14315 0
rtoes 0.798117 0 0
lowerback 15.7946 0.051755 -12.4056
upperback -0.721111 -2.03029 1.43271
thorax -9.36164 -0.306906 9.12726
lowerneck -4.25088 -3.43501 -4.64245
upperneck 5.07335 -4.53564 4.21914
head 2.37316 -2.22536 1.90419
lclavicle 5.35414e-14 -1.8082e-14 0
lhumerus 32.3068 -34.9696 75.156
lradius 93.1021 0 0
lwrist 37.0782 0 0
lhand -30.3116 32.7038 0
lfingers 7.12502 0 0
lthumb -3.61757 62.5988 0
rclavicle 5.35414e-14 -1.8082e-14 0
rhumerus -10.1644 29.1193 -91.9127
rradius 84.9553 0 0
rwrist -19.9072 0 0
rhand -21.1478 -46.4182 0
rfingers 7.12502 0 0
rthumb 5.23278 -76.4241 0
1122
root 0.879494 14.6894 -28.0601 359.413 10.3799 365.842
lfemur -24.2528 5.58835 -27.446
ltibia 68.8171 0 0
lfoot -29.7561 24.8854 0
ltoes -22.8613 0 0
rfemur -65.932 -8.88459 16.3535
rtibia 77.3087 0 0
rfoot 3.54199 -1.1012 0
rtoes 2.48983 0 0
lowerback 15.6896 -0.0476542 -12.2624
upperback -0.690634 -2.11929 1.5162
thorax -9.25436 -0.361655 9.15151
lowerneck -4.17962 -3.64168 -4.77357
upperneck 5.28755 -4.80318 4.19211
head 2.41938 -2.36205 1.90788
lclavicle 5.6124e-14 -1.59748e-14 0
lhumerus 27.8751 -36.2913 78.306
lradius 94.1205 0 0
lwrist 36.9807 0 0
lhand -29.9316 31.9949 0
lfingers 7.12502 0 0
lthumb -3.25065 61.896 0
rclavicle 5.6124e-14 -1.59748e-14 0
rhumerus -7.69267 29.3747 -90.8933
rradius 86.4876 0 0
rwrist -19.0214 0 0
rhand -21.2581 -45.9131 0
rfingers 7.12502 0 0
rthumb 5.12608 -75.9367 0
1123
root 0.840255 14.7086 -27.8517 359.212 11.1674 365.741
lfemur -23.6333 5.4979 -27.2119
ltibia 68.5399 0 0
lfoot -29.9798 24.7224 0
ltoes -22.8847 0 0
rfemur -64.9032 -8.19339 15.081
rtibia 74.0236 0 0
rfoot 6.40308 -1.09775 0
rtoes 4.10023 0 0
lowerback 15.5615 -0.145549 -12.0589
upperback -0.666462 -2.19428 1.61652
thorax -9.14278 -0.41225 9.1561
lowerneck -4.11643 -3.80762 -4.8793
upperneck 5.49594 -5.01716 4.14433
head 2.46615 -2.47224 1.9028
lclavicle 5.83863e-14 -1.38917e-14 0
lhumerus 23.6418 -37.4439 81.3074
lradius 95.096 0 0
lwrist 36.8274 0 0
lhand -29.5731 31.3011 0
lfingers 7.12502 0 0
lthumb -2.90444 61.2078 0
rclavicle 5.83863e-14 -1.38917e-14 0
rhumerus -5.47092 29.5808 -89.8477
rradius 88.1203 0 0
rwrist -18.3205 0 0
rhand -21.3153 -45.3481 0
rfingers 7.12502 0 0
rthumb 5.07059 -75.3855 0
1124
root 0.801015 14.7279 -27.6432 359.061 11.8592 365.582
lfemur -23.1308 5.47328 -26.926
ltibia 68.2974 0 0
lfoot -30.1562 24.5682 0
ltoes -22.8357 0 0
rfemur -63.6078 -7.47361 13.7656
rtibia 70.6491 0 0
rfoot 9.28746 -1.11642 0
rtoes 5.63167 0 0
lowerback 15.4137 -0.238662 -11.8054
upperback -0.647939 -2.25318 1.72751
thorax -9.02853 -0.457303 9.13969
lowerneck -4.05701 -3.94755 -4.97242
upperneck 5.69972 -5.1978 4.08784
head 2.5149 -2.56592 1.89359
lclavicle 6.0227e-14 -1.18198e-14 0
lhumerus 19.5027 -38.436 84.1963
lradius 96.0429 0 0
lwrist 36.6505 0 0
lhand -29.2239 30.6298 0
lfingers 7.12502 0 0
lthumb -2.56722 60.5418 0
rclavicle 6.0227e-14 -1.18198e-14 0
rhumerus -3.39894 29.712 -88.731
rradius 89.8279 0 0
rwrist -17.7404 0 0
rhand -21.3473 -44.7308 0
rfingers 7.12502 0 0
rthumb 5.03935 -74.7785 0
1125
root 0.761776 14.7471 -27.4348 358.944 12.4962 365.375
lfemur -22.6882 5.49551 -26.5817
ltibia 68.0647 0 0
lfoot -30.2913 24.4322 0
ltoes -22.7271 0 0
rfemur -62.0974 -6.74929 12.4175
rtibia 67.2097 0 0
rfoot 12.1652 -1.14083 0
rtoes 7.0865 0 0
lowerback 15.2497 -0.323729 -11.512
upperback -0.634412 -2.2939 1.84298
thorax -8.91321 -0.495426 9.10092
lowerneck -3.9971 -4.07622 -5.06569
upperneck 5.90009 -5.36531 4.03463
head 2.56708 -2.65307 1.88491
lclavicle 6.15452e-14 -9.74626e-15 0
lhumerus 15.3539 -39.2762 87.0094
lradius 96.9759 0 0
lwrist 36.4821 0 0
lhand -28.8719 29.9887 0
lfingers 7.12502 0 0
lthumb -2.22725 59.9055 0
rclavicle 6.15452e-14 -9.74626e-15 0
rhumerus -1.37656 29.7425 -87.4981
rradius 91.5852 0 0
rwrist -17.2172 0 0
rhand -21.3821 -44.0692 0
rfingers 7.12502 0 0
rthumb 5.00539 -74.1236 0
1126
root 0.722536 14.7664 -27.2263 358.847 13.1189 365.132
lfemur -22.248 5.54555 -26.1726
ltibia 67.8171 0 0
lfoot -30.3907 24.3237 0
ltoes -22.5714 0 0
rfemur -60.4236 -6.04448 11.0468
rtibia 63.7302 0 0
rfoot 15.0062 -1.15461 0
rtoes 8.46705 0 0
lowerback 15.0728 -0.397482 -11.1887
upperback -0.625224 -2.31436 1.95677
thorax -8.79841 -0.525232 9.03844
lowerneck -3.9324 -4.20836 -5.1719
upperneck 6.09827 -5.53989 3.99675
head 2.62415 -2.74368 1.88139
lclavicle 6.22396e-14 -7.65813e-15 0
lhumerus 11.0912 -39.9731 89.7831
lradius 97.9093 0 0
lwrist 36.3544 0 0
lhand -28.5049 29.3852 0
lfingers 7.12502 0 0
lthumb -1.87281 59.3063 0
rclavicle 6.22396e-14 -7.65813e-15 0
rhumerus 0.696421 29.6466 -86.1043
rradius 93.3669 0 0
rwrist -16.6868 0 0
rhand -21.4475 -43.371 0
rfingers 7.12502 0 0
rthumb 4.94177 -73.4288 0
1127
root 0.683297 14.7856 -27.0179 358.755 13.7682 364.862
lfemur -21.7531 5.60442 -25.6921
ltibia 67.5296 0 0
lfoot -30.4605 24.252 0
ltoes -22.3813 0 0
rfemur -58.6379 -5.38324 9.66339
rtibia 60.2352 0 0
rfoot 17.7807 -1.14136 0
rtoes 9.77568 0 0
lowerback 14.8864 -0.456656 -10.8457
upperback -0.619721 -2.31247 2.06271
thorax -8.68575 -0.545333 8.9509
lowerneck -3.85863 -4.35871 -5.30379
upperneck 6.29546 -5.74174 3.9862
head 2.68754 -2.84775 1.88768
lclavicle 6.22093e-14 -5.54257e-15 0
lhumerus 6.61048 -40.5353 92.5537
lradius 98.8576 0 0
lwrist 36.2996 0 0
lhand -28.1107 28.8268 0
lfingers 7.12502 0 0
lthumb -1.49218 58.7519 0
rclavicle 6.22093e-14 -5.54257e-15 0
rhumerus 2.92019 29.3985 -84.5045
rradius 95.1475 0 0
rwrist -16.0852 0 0
rhand -21.5717 -42.644 0
rfingers 7.12502 0 0
rthumb 4.82151 -72.7022 0
1128
root 0.644057 14.8049 -26.8094 358.656 14.4848 364.578
lfemur -21.1462 5.6531 -25.1337
ltibia 67.1773 0 0
lfoot -30.5063 24.2264 0
ltoes -22.1693 0 0
rfemur -56.7921 -4.78962 8.27748
rtibia 56.7493 0 0
rfoot 20.4586 -1.08472 0
rtoes 11.0147 0 0
lowerback 14.694 -0.497984 -10.4932
upperback -0.617248 -2.28616 2.15463
thorax -8.57682 -0.554341 8.83693
lowerneck -3.7715 -4.542 -5.47416
upperneck 6.49285 -5.99108 4.015
head 2.75869 -2.97526 1.90843
lclavicle 6.1353e-14 -3.3867e-15 0
lhumerus 1.80773 -40.9715 95.3577
lradius 99.8353 0 0
lwrist 36.3497 0 0
lhand -27.6773 28.321 0
lfingers 7.12502 0 0
lthumb -1.07364 58.2497 0
rclavicle 6.1353e-14 -3.3867e-15 0
rhumerus 5.39494 28.9725 -82.654
rradius 96.9017 0 0
rwrist -15.3485 0 0
rhand -21.7824 -41.896 0
rfingers 7.12502 0 0
rthumb 4.61767 -71.9518 0
1129
root 0.604818 14.8241 -26.601 358.533 15.3094 364.288
lfemur -20.37 5.67258 -24.491
ltibia 66.7356 0 0
lfoot -30.5341 24.2564 0
ltoes -21.948 0 0
rfemur -54.9376 -4.28767 6.8991
rtibia 53.2972 0 0
rfoot 23.0099 -0.968309 0
rtoes 12.1866 0 0
lowerback 14.499 -0.5182 -10.1412
upperback -0.617151 -2.23334 2.22634
thorax -8.47325 -0.55087 8.69519
lowerneck -3.66672 -4.77299 -5.69576
upperneck 6.69167 -6.3081 4.09518
head 2.83907 -3.13621 1.94829
lclavicle 5.95697e-14 -1.17765e-15 0
lhumerus -3.42114 -41.2902 98.2316
lradius 100.857 0 0
lwrist 36.5369 0 0
lhand -27.1925 27.8754 0
lfingers 7.12502 0 0
lthumb -0.605463 57.8072 0
rclavicle 5.95697e-14 -1.17765e-15 0
rhumerus 8.22086 28.3428 -80.5077
rradius 98.6043 0 0
rwrist -14.4126 0 0
rhand -22.1077 -41.1348 0
rfingers 7.12502 0 0
rthumb 4.30328 -71.1854 0
1130
root 0.565578 14.8434 -26.3925 358.374 16.2828 364.006
lfemur -19.3673 5.64387 -23.7573
ltibia 66.1795 0 0
lfoot -30.5496 24.3511 0
ltoes -21.7301 0 0
rfemur -53.1261 -3.90145 5.5383
rtibia 49.9036 0 0
rfoot 25.4047 -0.77574 0
rtoes 13.2935 0 0
lowerback 14.3049 -0.514037 -9.79997
upperback -0.618774 -2.15192 2.27169
thorax -8.37662 -0.533531 8.52433
lowerneck -3.54003 -5.06639 -5.98137
upperneck 6.8931 -6.71301 4.23876
head 2.9301 -3.34057 2.01189
lclavicle 5.67582e-14 1.09748e-15 0
lhumerus -9.18023 -41.5001 101.212
lradius 101.937 0 0
lwrist 36.8933 0 0
lhand -26.6442 27.4973 0
lfingers 7.12502 0 0
lthumb -0.0759217 57.4321 0
rclavicle 5.67582e-14 1.09748e-15 0
rhumerus 11.4981 27.4838 -78.0208
rradius 100.23 0 0
rwrist -13.2135 0 0
rhand -22.5754 -40.3682 0
rfingers 7.12502 0 0
rthumb 3.85139 -70.4112 0
1131
root 0.526339 14.8626 -26.1841 358.162 17.4456 363.74
lfemur -18.0808 5.54794 -22.9261
ltibia 65.4842 0 0
lfoot -30.5588 24.52 0
ltoes -21.5282 0 0
rfemur -51.4092 -3.65502 4.20514
rtibia 46.593 0 0
rfoot 27.613 -0.490639 0
rtoes 14.3379 0 0
lowerback 14.115 -0.482229 -9.47953
upperback -0.621462 -2.03982 2.2845
thorax -8.28855 -0.500936 8.32298
lowerneck -3.38712 -5.43695 -6.34375
upperneck 7.09836 -7.22601 4.45775
head 3.03325 -3.59834 2.10389
lclavicle 5.28175e-14 3.45155e-15 0
lhumerus -15.5736 -41.6098 104.335
lradius 103.09 0 0
lwrist 37.4511 0 0
lhand -26.0201 27.1945 0
lfingers 7.12502 0 0
lthumb 0.526706 57.1317 0
rclavicle 5.28175e-14 3.45155e-15 0
rhumerus 15.327 26.3697 -75.1484
rradius 101.753 0 0
rwrist -11.6872 0 0
rhand -23.2136 -39.604 0
rfingers 7.12502 0 0
rthumb 3.23504 -69.6372 0
1132
root 0.487099 14.8819 -25.9756 357.886 18.8387 363.503
lfemur -16.4532 5.3658 -21.991
ltibia 64.6249 0 0
lfoot -30.5675 24.7723 0
ltoes -21.3548 0 0
rfemur -49.8384 -3.57242 2.9097
rtibia 43.3902 0 0
rfoot 29.6049 -0.0966246 0
rtoes 15.3221 0 0
lowerback 13.9327 -0.419511 -9.19005
upperback -0.624561 -1.89496 2.25859
thorax -8.21064 -0.4517 8.08979
lowerneck -3.20371 -5.89941 -6.79569
upperneck 7.30865 -7.86732 4.76418
head 3.14994 -3.91952 2.22893
lclavicle 4.76465e-14 5.89745e-15 0
lhumerus -22.7054 -41.6278 107.637
lradius 104.33 0 0
lwrist 38.2425 0 0
lhand -25.3083 26.9742 0
lfingers 7.12502 0 0
lthumb 1.21414 56.9136 0
rclavicle 4.76465e-14 5.89745e-15 0
rhumerus 19.8076 24.9747 -71.8454
rradius 103.149 0 0
rwrist -9.76973 0 0
rhand -24.0501 -38.85 0
rfingers 7.12502 0 0
rthumb 2.42727 -68.8712 0
1133
root 0.44786 14.9011 -25.7672 357.529 20.5026 363.304
lfemur -14.4273 5.07843 -20.9455
ltibia 63.5767 0 0
lfoot -30.5815 25.1175 0
ltoes -21.2226 0 0
rfemur -48.4654 -3.67771 1.66203
rtibia 40.3198 0 0
rfoot 31.3504 0.42268 0
rtoes 16.2484 0 0
lowerback 13.7615 -0.322616 -8.94166
upperback -0.627416 -1.71526 2.1878
thorax -8.14449 -0.384433 7.82341
lowerneck -2.98553 -6.4685 -7.34994
upperneck 7.52518 -8.65713 5.17007
head 3.28164 -4.31408 2.39165
lclavicle 4.11439e-14 8.44806e-15 0
lhumerus -30.6796 -41.5627 111.154
lradius 105.672 0 0
lwrist 39.2995 0 0
lhand -24.4964 26.8441 0
lfingers 7.12502 0 0
lthumb 1.99812 56.7853 0
rclavicle 4.11439e-14 8.44806e-15 0
rhumerus 25.0401 23.2732 -68.0671
rradius 104.391 0 0
rwrist -7.39705 0 0
rhand -25.113 -38.1139 0
rfingers 7.12502 0 0
rthumb 1.40112 -68.1213 0
1134
root 0.40862 14.9204 -25.5587 357.077 22.4783 363.155
lfemur -11.9457 4.66683 -19.783
ltibia 62.3148 0 0
lfoot -30.6067 25.5648 0
ltoes -21.1443 0 0
rfemur -47.3418 -3.99494 0.472195
rtibia 37.4065 0 0
rfoot 32.8195 1.08366 0
rtoes 17.1192 0 0
lowerback 13.6049 -0.188277 -8.74449
upperback -0.629371 -1.49863 2.06595
thorax -8.09172 -0.297748 7.52249
lowerneck -2.72827 -7.15897 -8.01927
upperneck 7.74915 -9.61566 5.68743
head 3.42978 -4.79202 2.59671
lclavicle 3.32088e-14 1.11162e-14 0
lhumerus -39.6003 -41.4233 114.924
lradius 107.13 0 0
lwrist 40.6543 0 0
lhand -23.5724 26.8117 0
lfingers 7.12502 0 0
lthumb 2.89035 56.7544 0
rclavicle 3.32088e-14 1.11162e-14 0
rhumerus 31.1247 21.2393 -63.7686
rradius 105.455 0 0
rwrist -4.50516 0 0
rhand -26.43 -37.4036 0
rfingers 7.12502 0 0
rthumb 0.129625 -67.3956 0
